<mxfile host="app.diagrams.net" modified="2023-05-27T08:57:54.380Z" agent="Mozilla/5.0 (X11; Linux x86_64) AppleWebKit/537.36 (KHTML, like Gecko) Chrome/113.0.0.0 Safari/537.36" etag="gHGgHFWNDyp5iiIMjIJ_" version="21.3.3" type="github">
  <diagram name="Sayfa -1" id="zG_2l_ArqiEFrmXrTz8i">
    <mxGraphModel dx="806" dy="463" grid="1" gridSize="10" guides="1" tooltips="1" connect="1" arrows="1" fold="1" page="1" pageScale="1" pageWidth="827" pageHeight="1169" math="0" shadow="0">
      <root>
        <mxCell id="0" />
        <mxCell id="1" parent="0" />
        <mxCell id="zONAMrrNQjnf0vysekHA-1" value="PROJE TEKLİFLERİ&lt;br&gt;(detaylandır,&lt;br&gt;tekliflerin nasıl özellikleri olabilir)" style="rounded=0;whiteSpace=wrap;html=1;" vertex="1" parent="1">
          <mxGeometry x="120" y="240" width="120" height="60" as="geometry" />
        </mxCell>
        <mxCell id="zONAMrrNQjnf0vysekHA-3" value="" style="endArrow=none;html=1;rounded=0;exitX=0;exitY=0;exitDx=0;exitDy=0;entryX=0.667;entryY=1;entryDx=0;entryDy=0;entryPerimeter=0;" edge="1" parent="1" source="zONAMrrNQjnf0vysekHA-1" target="zONAMrrNQjnf0vysekHA-4">
          <mxGeometry width="50" height="50" relative="1" as="geometry">
            <mxPoint x="390" y="270" as="sourcePoint" />
            <mxPoint x="180" y="200" as="targetPoint" />
          </mxGeometry>
        </mxCell>
        <mxCell id="zONAMrrNQjnf0vysekHA-4" value="Id&lt;br&gt;(teklif no)" style="ellipse;whiteSpace=wrap;html=1;" vertex="1" parent="1">
          <mxGeometry x="50" y="140" width="60" height="50" as="geometry" />
        </mxCell>
        <mxCell id="zONAMrrNQjnf0vysekHA-5" value="Değerlendirir&lt;br&gt;(fiyatı belirleyen departman kim)" style="rhombus;whiteSpace=wrap;html=1;" vertex="1" parent="1">
          <mxGeometry x="115" y="395" width="130" height="100" as="geometry" />
        </mxCell>
        <mxCell id="zONAMrrNQjnf0vysekHA-6" value="" style="endArrow=none;html=1;rounded=0;exitX=0.5;exitY=0;exitDx=0;exitDy=0;entryX=0.5;entryY=1;entryDx=0;entryDy=0;" edge="1" parent="1" source="zONAMrrNQjnf0vysekHA-5" target="zONAMrrNQjnf0vysekHA-1">
          <mxGeometry width="50" height="50" relative="1" as="geometry">
            <mxPoint x="390" y="390" as="sourcePoint" />
            <mxPoint x="440" y="340" as="targetPoint" />
          </mxGeometry>
        </mxCell>
        <mxCell id="zONAMrrNQjnf0vysekHA-7" value="MALİYET" style="rounded=1;whiteSpace=wrap;html=1;" vertex="1" parent="1">
          <mxGeometry x="420" y="395" width="120" height="60" as="geometry" />
        </mxCell>
        <mxCell id="zONAMrrNQjnf0vysekHA-8" value="" style="endArrow=none;html=1;rounded=0;exitX=0.25;exitY=1;exitDx=0;exitDy=0;entryX=0.5;entryY=0;entryDx=0;entryDy=0;" edge="1" parent="1" source="zONAMrrNQjnf0vysekHA-7">
          <mxGeometry width="50" height="50" relative="1" as="geometry">
            <mxPoint x="480" y="460" as="sourcePoint" />
            <mxPoint x="405" y="490" as="targetPoint" />
          </mxGeometry>
        </mxCell>
        <mxCell id="zONAMrrNQjnf0vysekHA-11" value="" style="endArrow=none;html=1;rounded=0;exitX=0.75;exitY=1;exitDx=0;exitDy=0;entryX=0.5;entryY=0;entryDx=0;entryDy=0;" edge="1" parent="1" source="zONAMrrNQjnf0vysekHA-7" target="zONAMrrNQjnf0vysekHA-12">
          <mxGeometry width="50" height="50" relative="1" as="geometry">
            <mxPoint x="390" y="390" as="sourcePoint" />
            <mxPoint x="540" y="490" as="targetPoint" />
          </mxGeometry>
        </mxCell>
        <mxCell id="zONAMrrNQjnf0vysekHA-12" value="dış maliyet" style="rounded=0;whiteSpace=wrap;html=1;" vertex="1" parent="1">
          <mxGeometry x="510" y="480" width="80" height="50" as="geometry" />
        </mxCell>
        <mxCell id="zONAMrrNQjnf0vysekHA-13" value="iç maliyet" style="rounded=0;whiteSpace=wrap;html=1;" vertex="1" parent="1">
          <mxGeometry x="370" y="480" width="80" height="50" as="geometry" />
        </mxCell>
        <mxCell id="zONAMrrNQjnf0vysekHA-15" value="İnceler&lt;br&gt;(Kim)" style="rhombus;whiteSpace=wrap;html=1;" vertex="1" parent="1">
          <mxGeometry x="430" y="270" width="100" height="80" as="geometry" />
        </mxCell>
        <mxCell id="zONAMrrNQjnf0vysekHA-16" value="" style="endArrow=none;html=1;rounded=0;exitX=0.5;exitY=0;exitDx=0;exitDy=0;entryX=0.5;entryY=1;entryDx=0;entryDy=0;" edge="1" parent="1" source="zONAMrrNQjnf0vysekHA-7" target="zONAMrrNQjnf0vysekHA-15">
          <mxGeometry width="50" height="50" relative="1" as="geometry">
            <mxPoint x="390" y="390" as="sourcePoint" />
            <mxPoint x="440" y="340" as="targetPoint" />
          </mxGeometry>
        </mxCell>
        <mxCell id="zONAMrrNQjnf0vysekHA-17" value="Departman&lt;br&gt;(Mesela muhasebe)" style="rounded=0;whiteSpace=wrap;html=1;" vertex="1" parent="1">
          <mxGeometry x="420" y="145" width="120" height="60" as="geometry" />
        </mxCell>
        <mxCell id="zONAMrrNQjnf0vysekHA-18" value="" style="endArrow=none;html=1;rounded=0;entryX=0.5;entryY=1;entryDx=0;entryDy=0;exitX=0.5;exitY=0;exitDx=0;exitDy=0;" edge="1" parent="1" source="zONAMrrNQjnf0vysekHA-15" target="zONAMrrNQjnf0vysekHA-17">
          <mxGeometry width="50" height="50" relative="1" as="geometry">
            <mxPoint x="390" y="390" as="sourcePoint" />
            <mxPoint x="440" y="340" as="targetPoint" />
          </mxGeometry>
        </mxCell>
        <mxCell id="zONAMrrNQjnf0vysekHA-19" value="" style="endArrow=none;html=1;rounded=0;exitX=1;exitY=0.5;exitDx=0;exitDy=0;entryX=0;entryY=1;entryDx=0;entryDy=0;" edge="1" parent="1" source="zONAMrrNQjnf0vysekHA-5" target="zONAMrrNQjnf0vysekHA-17">
          <mxGeometry width="50" height="50" relative="1" as="geometry">
            <mxPoint x="390" y="390" as="sourcePoint" />
            <mxPoint x="440" y="340" as="targetPoint" />
          </mxGeometry>
        </mxCell>
        <mxCell id="zONAMrrNQjnf0vysekHA-21" value="Fiyat" style="ellipse;whiteSpace=wrap;html=1;" vertex="1" parent="1">
          <mxGeometry x="140" y="140" width="60" height="50" as="geometry" />
        </mxCell>
        <mxCell id="zONAMrrNQjnf0vysekHA-23" value="" style="endArrow=none;html=1;rounded=0;exitX=0.25;exitY=0;exitDx=0;exitDy=0;entryX=0.4;entryY=1;entryDx=0;entryDy=0;entryPerimeter=0;" edge="1" parent="1" source="zONAMrrNQjnf0vysekHA-1" target="zONAMrrNQjnf0vysekHA-21">
          <mxGeometry width="50" height="50" relative="1" as="geometry">
            <mxPoint x="390" y="390" as="sourcePoint" />
            <mxPoint x="440" y="340" as="targetPoint" />
          </mxGeometry>
        </mxCell>
      </root>
    </mxGraphModel>
  </diagram>
</mxfile>
